<svg width="64" height="64" viewBox="0 0 64 64" fill="none" xmlns="http://www.w3.org/2000/svg">
<g clip-path="url(#clip0_657_5)">
<path d="M17.7775 14L21.3333 17.6L17.7775 21.2L14.2223 17.6L17.7775 14ZM24.889 21.2L28.4442 24.8L24.889 28.4L21.3333 24.8L24.889 21.2ZM53.3333 21.2L56.889 24.8L53.3333 28.4L49.7775 24.8L53.3333 21.2ZM60.4442 28.4L63.9999 32L60.4442 35.6L56.889 32L60.4442 28.4ZM53.3333 35.6L56.889 39.2L53.3333 42.8L49.7775 39.2L53.3333 35.6ZM46.2223 42.8L49.7775 46.4L46.2223 50L42.6666 46.4L46.2223 42.8ZM39.1108 35.6L42.6666 39.2L39.1108 42.8L35.5557 39.2L39.1108 35.6ZM10.6666 21.2L14.2223 24.8L10.6666 28.4L7.11084 24.8L10.6666 21.2Z" fill="#A9C1EA"/>
<path d="M46.2224 14L49.7776 17.6L17.7776 50L0 32L3.55575 28.4L17.7776 42.8L46.2224 14Z" fill="#1671F1"/>
</g>
<defs>
<clipPath id="clip0_657_5">
<rect width="64" height="36" fill="white" transform="translate(0 14)"/>
</clipPath>
</defs>
</svg>
